<svg width="37.000122" height="48.000000" viewBox="0 0 37.0001 48" fill="none" xmlns="http://www.w3.org/2000/svg" xmlns:xlink="http://www.w3.org/1999/xlink">
	<desc>
			Created with Pixso.
	</desc>
	<defs/>
	<rect id="User" width="37.000004" height="48.000000" fill="#FFFFFF" fill-opacity="0"/>
	<path id="Убрать верхний слой" d="M0.00012207 37.3708C0.00012207 26.9487 8.28284 20.4999 18.5001 20.4999C28.7174 20.4999 37.0001 26.9487 37.0001 37.3708C37.0001 47.793 28.7174 47.9999 18.5001 47.9999C8.28284 47.9999 0.00012207 47.793 0.00012207 37.3708ZM18.5001 24.4999C14.9894 24.4999 12.0036 25.3035 9.5426 26.9108C9.01978 27.2522 8.52069 27.6299 8.04529 28.0438C7.00488 28.9497 6.16516 29.9688 5.52612 31.1012C4.50879 32.9041 4.00012 34.9939 4.00012 37.3708C4.00012 39.5096 4.5332 41.0724 5.59937 42.0594C5.97357 42.4057 6.41339 42.6812 6.91888 42.8857C8.75482 43.6285 12.6153 43.9999 18.5001 43.9999C24.3849 43.9999 28.2454 43.6285 30.0814 42.8857C30.5869 42.6812 31.0267 42.4057 31.4009 42.0594C32.467 41.0724 33.0001 39.5096 33.0001 37.3708C33.0001 34.9939 32.4915 32.9041 31.4741 31.1012C30.8351 29.9688 29.9954 28.9497 28.955 28.0438C28.4796 27.6299 27.9805 27.2522 27.4578 26.9108L27.4576 26.9108C24.9966 25.3035 22.0108 24.4999 18.5001 24.4999Z" clip-rule="evenodd" fill="#FFFFFF" fill-opacity="1.000000" fill-rule="evenodd"/>
	<circle id="Эллипс 5" cx="18.500000" cy="9.500000" r="8.000000" stroke="#FFFFFF" stroke-opacity="1.000000" stroke-width="3.000000"/>
</svg>
