<svg width="23.000000" height="28.094604" viewBox="0 0 23 28.0946" fill="none" xmlns="http://www.w3.org/2000/svg" xmlns:xlink="http://www.w3.org/1999/xlink">
	<desc>
			Created with Pixso.
	</desc>
	<defs/>
	<circle id="Эллипс 5" cx="11.500000" cy="5.500000" r="4.500000" stroke="#FFFFFF" stroke-opacity="1.000000" stroke-width="2.000000"/>
	<path id="Убрать верхний слой" d="M0 21.4873C0 15.0087 5.14874 11 11.5 11C17.8513 11 23 15.0087 23 21.4873C23 27.9659 17.8513 28.0946 11.5 28.0946C5.14874 28.0946 0 27.9659 0 21.4873ZM11.5 13C10.1393 13 8.8656 13.2057 7.67889 13.6172C6.5282 14.0162 5.52911 14.5846 4.68158 15.3225C4.16394 15.7733 3.7196 16.2734 3.34857 16.8231L3.34857 16.8231C3.11102 17.175 2.9035 17.5471 2.72607 17.9396C2.242 19.01 2 20.1926 2 21.4873C2 22.6569 2.19855 23.5565 2.59558 24.1864C2.64636 24.2668 2.70117 24.3441 2.76007 24.4181L2.76007 24.4181C2.88696 24.5774 3.03278 24.7216 3.19757 24.8507C3.44946 25.0481 3.75641 25.22 4.11835 25.3665C4.86487 25.6685 5.888 25.8729 7.18781 25.98C7.76788 26.0278 8.44714 26.0601 9.22552 26.0769C9.77222 26.0886 10.5304 26.0946 11.5 26.0946C12.4696 26.0946 13.2278 26.0886 13.7745 26.0769C14.5529 26.0601 15.2321 26.0278 15.8122 25.98C17.112 25.8729 18.1351 25.6685 18.8816 25.3665C19.2436 25.22 19.5505 25.0481 19.8024 24.8507C19.9672 24.7216 20.113 24.5774 20.2399 24.4181L20.2399 24.4181C20.2988 24.3441 20.3536 24.2668 20.4044 24.1864C20.8015 23.5565 21 22.6569 21 21.4873C21 20.1926 20.758 19.01 20.2739 17.9396C20.0965 17.5472 19.889 17.175 19.6515 16.8232L19.6514 16.8231C19.2804 16.2734 18.8361 15.7733 18.3184 15.3225C17.4709 14.5846 16.4718 14.0162 15.3211 13.6172C14.1344 13.2057 12.8607 13 11.5 13Z" clip-rule="evenodd" fill="#FFFFFF" fill-opacity="1.000000" fill-rule="evenodd"/>
</svg>
